<svg width="896" height="424" viewBox="0 0 896 424" fill="none" xmlns="http://www.w3.org/2000/svg">
<path d="M448 0C200.6 0 0 200.6 0 448C0 695.4 200.6 896 448 896C695.4 896 896 695.4 896 448C896 200.6 695.4 0 448 0ZM663.3 337.7C663.6 342.4 663.6 347.3 663.6 352.1C663.6 498.9 551.8 668 347.5 668C284.5 668 226.1 649.7 176.9 618.2C185.9 619.2 194.5 619.6 203.7 619.6C255.7 619.6 303.5 602 341.6 572.2C292.8 571.2 251.8 539.2 237.8 495.2C254.9 497.7 270.3 497.7 287.9 493.2C262.773 488.095 240.188 474.448 223.982 454.578C207.776 434.708 198.949 409.841 199 384.2V382.8C213.7 391.1 231 396.2 249.1 396.9C233.884 386.759 221.406 373.021 212.771 356.903C204.136 340.785 199.612 322.785 199.6 304.5C199.6 283.8 205 264.9 214.7 248.5C242.59 282.834 277.393 310.914 316.846 330.917C356.3 350.919 399.521 362.395 443.7 364.6C428 289.1 484.4 228 552.2 228C584.2 228 613 241.4 633.3 263C658.4 258.3 682.4 248.9 703.8 236.3C695.5 262 678.1 283.7 655 297.4C677.4 295 699 288.8 719 280.1C703.9 302.3 685 322 663.3 337.7Z" fill="black"/>
</svg>
